<svg width="194" height="71" viewBox="0 0 194 71" fill="none" xmlns="http://www.w3.org/2000/svg">
    <g filter="url(#filter0_d_2_3)">
        <path
            d="M20.4609 0.0820312H29.1719V26H20.5195V15.4727H14.1133V10.2773H20.4609V0.0820312ZM12.7461 26H4.11328V0.0820312H12.7461V26ZM42.3555 15.3555V26H33.7227V0.0820312H42.3555V10.3555H50.6172V15.3555H42.3555ZM43.7227 5.10156V0.0820312H57.2188V7.58203H49.0938V5.10156H43.7227ZM43.7227 26V20.8242H48.5859V18.2266H57.2188V26H43.7227ZM78.3906 23.168H69.9141L71.7109 18.0312H76.3984L69.4648 0.0820312H77.8828L88.2148 26H79.4844L78.3906 23.168ZM67.6094 26H59.2695L68.5273 1.25391L72.3555 11.5469L67.6094 26ZM90.6758 26V0.0820312H99.3086V26H90.6758ZM100.676 26V20.8242H104.953V17.543H112.785V26H100.676ZM117.453 7.07422H126.438V26H117.453V7.07422ZM110.695 0.0820312H133.195V5.72656H110.695V0.0820312ZM152.844 0.0820312H161.555V26H152.902V15.4727H146.496V10.2773H152.844V0.0820312ZM145.129 26H136.496V0.0820312H145.129V26ZM172.102 17.7578L163.312 0.0820312H171.789L180.754 18.3633V26H172.102V17.7578ZM181.301 16.5469L177.102 8.03125L181.359 0.0820312H189.66L181.301 16.5469ZM24.4648 37.082H33.6445L40.5977 48.6055L46.0664 39.2305V52.2773L39.8359 63L24.4648 37.082ZM47.3359 63V37.082H55.9688V63H47.3359ZM24.4453 63V39.4844L32.5117 53.0195V63H24.4453ZM69.1719 52.3555V63H60.5391V37.082H69.1719V47.3555H77.4336V52.3555H69.1719ZM70.5391 42.1016V37.082H84.0352V44.582H75.9102V42.1016H70.5391ZM70.5391 63V57.8242H75.4023V55.2266H84.0352V63H70.5391ZM105.207 60.168H96.7305L98.5273 55.0312H103.215L96.2812 37.082H104.699L115.031 63H106.301L105.207 60.168ZM94.4258 63H86.0859L95.3438 38.2539L99.1719 48.5469L94.4258 63ZM117.492 63V37.082H126.125V63H117.492ZM127.492 63V57.8242H131.77V54.543H139.602V63H127.492ZM158.273 63V53.293H147.062L141.867 48.0977V42.2578L147.062 37.082H149.992V46.2812H161.906L166.926 51.4766V57.8242L161.75 63H158.273ZM151.359 41.75V37.082H161.73L166.223 41.5938V44.3477H158.273V41.75H151.359ZM141.867 55.2266H150.5V58.3125H156.906V63H146.223L141.867 57.8242V55.2266Z"
            fill="black" />
    </g>
    <defs>
        <filter id="filter0_d_2_3" x="0.113281" y="0.0820312" width="193.547" height="70.918"
            filterUnits="userSpaceOnUse" color-interpolation-filters="sRGB">
            <feFlood flood-opacity="0" result="BackgroundImageFix" />
            <feColorMatrix in="SourceAlpha" type="matrix"
                values="0 0 0 0 0 0 0 0 0 0 0 0 0 0 0 0 0 0 127 0" result="hardAlpha" />
            <feOffset dy="4" />
            <feGaussianBlur stdDeviation="2" />
            <feComposite in2="hardAlpha" operator="out" />
            <feColorMatrix type="matrix" values="0 0 0 0 0 0 0 0 0 0 0 0 0 0 0 0 0 0 0.25 0" />
            <feBlend mode="normal" in2="BackgroundImageFix" result="effect1_dropShadow_2_3" />
            <feBlend mode="normal" in="SourceGraphic" in2="effect1_dropShadow_2_3" result="shape" />
        </filter>
    </defs>
</svg>